<?xml version="1.0" encoding="utf-8"?>
<!-- Generator: Adobe Illustrator 24.0.1, SVG Export Plug-In . SVG Version: 6.00 Build 0)  -->
<svg version="1.1" id="Layer_1" xmlns="http://www.w3.org/2000/svg" xmlns:xlink="http://www.w3.org/1999/xlink" x="0px" y="0px"
	 viewBox="0 0 819.48 128.58" style="enable-background:new 0 0 819.48 128.58;" xml:space="preserve">
<style type="text/css">
	.st0{fill:#E74219;}
	.st1{fill:#FFFFFF;}
</style>
<g>
	<path class="st0" d="M601.9,19.67v26.36h-41.63V60.7h29.95V85.7h-29.95v39.98h-33.24V19.67H601.9z M646.37,14.88v110.81h-33.24
		V14.88H646.37z M664.19,29.85c-3.5-3.09-5.24-6.98-5.24-11.68c0-4.79,1.74-8.76,5.24-11.9c3.49-3.14,8.13-4.72,13.92-4.72
		c5.69,0,10.28,1.58,13.78,4.72c3.5,3.14,5.24,7.11,5.24,11.9c0,4.7-1.74,8.59-5.24,11.68c-3.49,3.1-8.09,4.64-13.78,4.64
		C672.32,34.49,667.68,32.94,664.19,29.85z M694.59,41.23v84.45h-33.24V41.23H694.59z M780.74,125.68l-14.23-19.02l-10.63,19.02
		h-36.53l28.3-44.47l-29.8-39.98h37.14l14.23,19.17l10.78-19.17h36.54l-29.2,43.42l30.55,41.03H780.74z"/>
	<path class="st1" d="M20.7,122.99c-5.84-2.5-10.46-6.09-13.85-10.78c-3.4-4.69-5.14-10.23-5.25-16.62h22.46
		c0.3,4.3,1.82,7.69,4.56,10.18c2.75,2.5,6.51,3.75,11.31,3.75c4.89,0,8.73-1.18,11.53-3.52s4.19-5.41,4.19-9.21
		c0-3.1-0.95-5.64-2.85-7.64c-1.89-1.99-4.27-3.56-7.11-4.72c-2.85-1.15-6.76-2.42-11.75-3.81c-6.79-2-12.31-3.97-16.55-5.92
		c-4.24-1.95-7.88-4.89-10.93-8.83s-4.56-9.21-4.56-15.8c0-6.19,1.54-11.58,4.64-16.17c3.1-4.59,7.44-8.11,13.03-10.56
		c5.59-2.44,11.98-3.67,19.17-3.67c10.78,0,19.54,2.62,26.28,7.86c6.74,5.25,10.46,12.56,11.16,21.94H53.12
		c-0.21-3.59-1.72-6.56-4.57-8.91c-2.85-2.35-6.62-3.52-11.31-3.52c-4.09,0-7.36,1.05-9.8,3.14c-2.45,2.1-3.67,5.14-3.67,9.13
		c0,2.8,0.92,5.12,2.77,6.96s4.14,3.34,6.89,4.49c2.74,1.15,6.61,2.47,11.6,3.97c6.79,2,12.33,3.99,16.62,5.99
		c4.3,2,7.99,4.99,11.08,8.98c3.1,4,4.64,9.24,4.64,15.73c0,5.59-1.45,10.78-4.34,15.57c-2.89,4.79-7.13,8.61-12.73,11.45
		s-12.23,4.27-19.91,4.27C33.1,126.73,26.53,125.48,20.7,122.99z M95.34,61.67c3.49-6.44,8.34-11.43,14.53-14.98
		c6.19-3.54,13.28-5.31,21.26-5.31c10.28,0,18.79,2.57,25.53,7.71c6.74,5.14,11.25,12.36,13.55,21.64H147.6
		c-1.19-3.59-3.22-6.42-6.06-8.46c-2.85-2.05-6.37-3.07-10.56-3.07c-5.99,0-10.73,2.18-14.22,6.51c-3.5,4.34-5.25,10.51-5.25,18.49
		c0,7.89,1.75,14,5.25,18.35c3.49,4.34,8.23,6.51,14.22,6.51c8.49,0,14.03-3.79,16.62-11.38h22.61c-2.3,8.99-6.84,16.12-13.62,21.42
		c-6.79,5.29-15.27,7.93-25.46,7.93c-7.99,0-15.07-1.77-21.26-5.31c-6.19-3.55-11.03-8.54-14.53-14.98
		c-3.5-6.44-5.24-13.95-5.24-22.54C90.1,75.62,91.84,68.11,95.34,61.67z M217.15,45.27c4.34-2.5,9.31-3.75,14.9-3.75v22.01h-5.54
		c-6.59,0-11.56,1.55-14.9,4.64c-3.34,3.1-5.02,8.49-5.02,16.17v41.33h-20.96V42.73h20.96V55.6
		C209.29,51.22,212.81,47.77,217.15,45.27z M322.64,90.5H262c0.5,5.99,2.6,10.68,6.29,14.07c3.69,3.39,8.24,5.09,13.62,5.09
		c7.79,0,13.33-3.34,16.62-10.03h22.61c-2.39,7.99-6.99,14.55-13.78,19.69c-6.79,5.14-15.12,7.71-25.01,7.71
		c-7.99,0-15.15-1.77-21.49-5.31c-6.34-3.55-11.28-8.56-14.82-15.05c-3.54-6.49-5.31-13.98-5.31-22.46c0-8.58,1.74-16.12,5.24-22.61
		c3.49-6.48,8.38-11.47,14.68-14.97c6.29-3.49,13.53-5.24,21.71-5.24c7.88,0,14.95,1.69,21.19,5.09
		c6.23,3.39,11.08,8.21,14.53,14.45c3.44,6.24,5.16,13.4,5.16,21.49C323.24,85.4,323.04,88.1,322.64,90.5z M301.53,76.42
		c-0.1-5.39-2.05-9.71-5.84-12.95c-3.79-3.25-8.43-4.87-13.92-4.87c-5.19,0-9.56,1.57-13.11,4.72c-3.54,3.14-5.72,7.51-6.51,13.1
		H301.53z M415.03,90.5h-60.64c0.5,5.99,2.6,10.68,6.29,14.07c3.69,3.39,8.24,5.09,13.62,5.09c7.79,0,13.33-3.34,16.62-10.03h22.61
		c-2.39,7.99-6.99,14.55-13.78,19.69c-6.79,5.14-15.12,7.71-25.01,7.71c-7.99,0-15.15-1.77-21.49-5.31
		c-6.34-3.55-11.28-8.56-14.82-15.05c-3.54-6.49-5.31-13.98-5.31-22.46c0-8.58,1.74-16.12,5.24-22.61
		c3.49-6.48,8.38-11.47,14.68-14.97c6.29-3.49,13.53-5.24,21.71-5.24c7.88,0,14.95,1.69,21.19,5.09
		c6.23,3.39,11.08,8.21,14.53,14.45c3.44,6.24,5.16,13.4,5.16,21.49C415.63,85.4,415.42,88.1,415.03,90.5z M393.92,76.42
		c-0.1-5.39-2.05-9.71-5.84-12.95c-3.79-3.25-8.43-4.87-13.92-4.87c-5.19,0-9.56,1.57-13.11,4.72c-3.54,3.14-5.72,7.51-6.51,13.1
		H393.92z M500.83,50.89c6.09,6.24,9.13,14.95,9.13,26.13v48.66H489V79.86c0-6.59-1.65-11.66-4.94-15.2
		c-3.29-3.54-7.79-5.31-13.48-5.31c-5.79,0-10.36,1.77-13.7,5.31c-3.35,3.55-5.02,8.61-5.02,15.2v45.82H430.9V42.73h20.96v10.33
		c2.8-3.59,6.37-6.42,10.71-8.46c4.34-2.05,9.1-3.07,14.3-3.07C486.75,41.53,494.74,44.65,500.83,50.89z M714.72,47.43h-13.85v72
		h15.1l24.08-37.93L714.72,47.43z"/>
</g>
</svg>
