<svg id="Layer_1" data-name="Layer 1" xmlns="http://www.w3.org/2000/svg" viewBox="0 0 819.48 128.58"><defs><style>.cls-1{fill:#e74219;}.cls-2{fill:#fff;}</style></defs><title>logo_</title><path class="cls-1" d="M601.9,19.67V46H560.28V60.7h29.94v25H560.28v40H527v-106Zm44.47-4.79v110.8H613.13V14.88Zm17.82,15A14.9,14.9,0,0,1,659,18.17a15.29,15.29,0,0,1,5.24-11.9q5.23-4.72,13.92-4.72,8.53,0,13.78,4.72a15.29,15.29,0,0,1,5.24,11.9,14.9,14.9,0,0,1-5.24,11.68q-5.24,4.63-13.78,4.64T664.19,29.85Zm30.4,11.38v84.45H661.34V41.23Zm86.15,84.45-14.23-19-10.63,19H719.35l28.3-44.47-29.8-40H755L769.21,60.4,780,41.23h36.54l-29.2,43.42,30.55,41Z"/><path class="cls-2" d="M20.7,123A32.29,32.29,0,0,1,6.85,112.21,28.44,28.44,0,0,1,1.6,95.58H24.07a14.47,14.47,0,0,0,4.56,10.18c2.75,2.5,6.51,3.75,11.31,3.75s8.73-1.17,11.53-3.52a11.46,11.46,0,0,0,4.19-9.21,10.65,10.65,0,0,0-2.85-7.64,19.92,19.92,0,0,0-7.11-4.71A117.28,117.28,0,0,0,34,80.61,125.82,125.82,0,0,1,17.4,74.7,29.12,29.12,0,0,1,6.47,65.86Q1.9,60,1.91,50.06A28.28,28.28,0,0,1,6.54,33.89a29.68,29.68,0,0,1,13-10.56,47.5,47.5,0,0,1,19.17-3.66q16.17,0,26.28,7.86T76.17,49.47H53.12a12,12,0,0,0-4.57-8.91Q44.28,37,37.24,37q-6.15,0-9.8,3.14t-3.67,9.13a9.47,9.47,0,0,0,2.76,7,21.36,21.36,0,0,0,6.89,4.49q4.13,1.73,11.61,4a122.17,122.17,0,0,1,16.62,6,30,30,0,0,1,11.08,9q4.65,6,4.64,15.73A29.63,29.63,0,0,1,73,111,30.75,30.75,0,0,1,60.3,122.47q-8.38,4.26-19.91,4.26A49.7,49.7,0,0,1,20.7,123ZM95.34,61.67a37.49,37.49,0,0,1,14.53-15,42,42,0,0,1,21.26-5.31q15.42,0,25.53,7.71t13.55,21.64H147.6a16.54,16.54,0,0,0-6.06-8.46A17.61,17.61,0,0,0,131,59.2q-9,0-14.22,6.51T111.51,84.2q0,11.83,5.25,18.35T131,109.06q12.74,0,16.62-11.38h22.61a38.35,38.35,0,0,1-13.62,21.42Q146.39,127,131.13,127a42,42,0,0,1-21.26-5.31,37.49,37.49,0,0,1-14.53-15Q90.09,97.08,90.1,84.2T95.34,61.67Zm121.81-16.4a29.41,29.41,0,0,1,14.9-3.74v22h-5.54q-9.88,0-14.9,4.64t-5,16.17v41.33h-21v-83h21V55.6A29.67,29.67,0,0,1,217.15,45.27ZM322.64,90.5H262q.75,9,6.29,14.07a19.39,19.39,0,0,0,13.62,5.09q11.68,0,16.62-10h22.61a37.77,37.77,0,0,1-13.77,19.69q-10.19,7.71-25,7.71a43.31,43.31,0,0,1-21.49-5.31,37.47,37.47,0,0,1-14.82-15,46.18,46.18,0,0,1-5.31-22.47q0-12.87,5.23-22.61a36.69,36.69,0,0,1,14.68-15,47.12,47.12,0,0,1,42.9-.15,35.85,35.85,0,0,1,14.53,14.45,43.77,43.77,0,0,1,5.16,21.49A49.52,49.52,0,0,1,322.64,90.5ZM301.53,76.42a16.63,16.63,0,0,0-5.84-13,20.67,20.67,0,0,0-13.93-4.87,19,19,0,0,0-13.1,4.72q-5.31,4.71-6.51,13.1ZM415,90.5H354.39q.75,9,6.28,14.07a19.43,19.43,0,0,0,13.63,5.09q11.67,0,16.62-10h22.61a37.79,37.79,0,0,1-13.78,19.69q-10.17,7.71-25,7.71a43.31,43.31,0,0,1-21.49-5.31,37.49,37.49,0,0,1-14.83-15,46.18,46.18,0,0,1-5.31-22.47q0-12.87,5.24-22.61a36.63,36.63,0,0,1,14.68-15,47.12,47.12,0,0,1,42.9-.15,35.82,35.82,0,0,1,14.52,14.45,43.67,43.67,0,0,1,5.17,21.49A50.66,50.66,0,0,1,415,90.5ZM393.92,76.42a16.63,16.63,0,0,0-5.85-13,20.64,20.64,0,0,0-13.92-4.87,19,19,0,0,0-13.1,4.72q-5.31,4.71-6.52,13.1ZM500.83,50.89Q510,60.25,510,77v48.66H489V79.86q0-9.89-4.95-15.2t-13.47-5.31q-8.68,0-13.7,5.31t-5,15.2v45.82h-21v-83h21V53.06a29.11,29.11,0,0,1,10.71-8.46,33,33,0,0,1,14.3-3.07Q491.69,41.53,500.83,50.89Zm213.89-3.46H700.87v72H716L740.05,81.5Z"/></svg>